<svg width="860" height="340" viewBox="0 0 860 340" xmlns="http://www.w3.org/2000/svg">
    <defs>
        <linearGradient id="bg" x1="0%" y1="0%" x2="100%" y2="100%">
            <stop offset="0%" stop-color="#0d1117"/>
            <stop offset="100%" stop-color="#161b22"/>
        </linearGradient>
        <style>
            .window { fill: url(#bg); stroke: #30363d; stroke-width: 1px; rx: 8px; }
            .topbar { fill: #010409; }
            .dot-red { fill: #ff5f56; }
            .dot-yellow { fill: #ffbd2e; }
            .dot-green { fill: #27c93f; }
            
            .text { font-family: "SFMono-Regular", Consolas, "Liberation Mono", Menlo, Courier, monospace; font-size: 14px; fill: #c9d1d9; }
            .key { fill: #79c0ff; font-weight: bold; }
            .val { fill: #8b949e; }
            
            .typing-container {
                overflow: hidden;
                white-space: nowrap;
                border-right: 2px solid #c9d1d9;
                width: 0;
                animation: typing 1.2s steps(30, end) forwards, blink 0.8s step-end infinite;
            }
            .fade { opacity: 0; animation: fadeIn 0.4s ease-in forwards; }
            .f-1 { animation-delay: 1.3s; }
            .f-2 { animation-delay: 1.5s; }
            .f-3 { animation-delay: 1.7s; }
            .f-4 { animation-delay: 1.9s; }
            .f-5 { animation-delay: 2.1s; }
            .f-6 { animation-delay: 2.3s; }
            
            @keyframes typing {
                from { width: 0; }
                to { width: 320px; }
            }
            @keyframes blink {
                from, to { border-color: transparent; }
                50% { border-color: #c9d1d9; }
            }
            @keyframes fadeIn {
                from { opacity: 0; transform: translateY(4px); }
                to { opacity: 1; transform: translateY(0); }
            }
            
            .progress-bg { fill: #21262d; rx: 3px; }
            .progress-bar { rx: 3px; }
        </style>
    </defs>

    <rect width="100%" height="100%" class="window" />
    <path d="M 0 8 Q 0 0 8 0 L 852 0 Q 860 0 860 8 L 860 30 L 0 30 Z" class="topbar" />
    <circle cx="20" cy="15" r="6" class="dot-red" />
    <circle cx="40" cy="15" r="6" class="dot-yellow" />
    <circle cx="60" cy="15" r="6" class="dot-green" />
    <text x="430" y="20" font-family="sans-serif" font-size="12px" fill="#8b949e" text-anchor="middle">perez66607@github: ~ (zsh)</text>

    <!-- Logo 666 Pixel Art -->
    <g class="fade" style="animation-delay: 0.4s;">
        <rect x="80" y="85" width="5.5" height="5.5" fill="#00a8ff" rx="1"/>
<rect x="85" y="85" width="5.5" height="5.5" fill="#00a8ff" rx="1"/>
<rect x="245" y="85" width="5.5" height="5.5" fill="#00a8ff" rx="1"/>
<rect x="250" y="85" width="5.5" height="5.5" fill="#00a8ff" rx="1"/>
<rect x="75" y="90" width="5.5" height="5.5" fill="#00a8ff" rx="1"/>
<rect x="80" y="90" width="5.5" height="5.5" fill="#00a8ff" rx="1"/>
<rect x="250" y="90" width="5.5" height="5.5" fill="#00a8ff" rx="1"/>
<rect x="255" y="90" width="5.5" height="5.5" fill="#00a8ff" rx="1"/>
<rect x="70" y="95" width="5.5" height="5.5" fill="#00a8ff" rx="1"/>
<rect x="75" y="95" width="5.5" height="5.5" fill="#00a8ff" rx="1"/>
<rect x="255" y="95" width="5.5" height="5.5" fill="#00a8ff" rx="1"/>
<rect x="260" y="95" width="5.5" height="5.5" fill="#00a8ff" rx="1"/>
<rect x="70" y="100" width="5.5" height="5.5" fill="#00a8ff" rx="1"/>
<rect x="75" y="100" width="5.5" height="5.5" fill="#00a8ff" rx="1"/>
<rect x="110" y="100" width="5.5" height="5.5" fill="#ff7b72" rx="1"/>
<rect x="115" y="100" width="5.5" height="5.5" fill="#ff7b72" rx="1"/>
<rect x="120" y="100" width="5.5" height="5.5" fill="#ff7b72" rx="1"/>
<rect x="125" y="100" width="5.5" height="5.5" fill="#ff7b72" rx="1"/>
<rect x="155" y="100" width="5.5" height="5.5" fill="#ff7b72" rx="1"/>
<rect x="160" y="100" width="5.5" height="5.5" fill="#ff7b72" rx="1"/>
<rect x="165" y="100" width="5.5" height="5.5" fill="#ff7b72" rx="1"/>
<rect x="170" y="100" width="5.5" height="5.5" fill="#ff7b72" rx="1"/>
<rect x="200" y="100" width="5.5" height="5.5" fill="#ff7b72" rx="1"/>
<rect x="205" y="100" width="5.5" height="5.5" fill="#ff7b72" rx="1"/>
<rect x="210" y="100" width="5.5" height="5.5" fill="#ff7b72" rx="1"/>
<rect x="215" y="100" width="5.5" height="5.5" fill="#ff7b72" rx="1"/>
<rect x="255" y="100" width="5.5" height="5.5" fill="#00a8ff" rx="1"/>
<rect x="260" y="100" width="5.5" height="5.5" fill="#00a8ff" rx="1"/>
<rect x="70" y="105" width="5.5" height="5.5" fill="#00a8ff" rx="1"/>
<rect x="75" y="105" width="5.5" height="5.5" fill="#00a8ff" rx="1"/>
<rect x="105" y="105" width="5.5" height="5.5" fill="#ff7b72" rx="1"/>
<rect x="110" y="105" width="5.5" height="5.5" fill="#ff7b72" rx="1"/>
<rect x="150" y="105" width="5.5" height="5.5" fill="#ff7b72" rx="1"/>
<rect x="155" y="105" width="5.5" height="5.5" fill="#ff7b72" rx="1"/>
<rect x="195" y="105" width="5.5" height="5.5" fill="#ff7b72" rx="1"/>
<rect x="200" y="105" width="5.5" height="5.5" fill="#ff7b72" rx="1"/>
<rect x="255" y="105" width="5.5" height="5.5" fill="#00a8ff" rx="1"/>
<rect x="260" y="105" width="5.5" height="5.5" fill="#00a8ff" rx="1"/>
<rect x="70" y="110" width="5.5" height="5.5" fill="#00a8ff" rx="1"/>
<rect x="75" y="110" width="5.5" height="5.5" fill="#00a8ff" rx="1"/>
<rect x="105" y="110" width="5.5" height="5.5" fill="#ff7b72" rx="1"/>
<rect x="110" y="110" width="5.5" height="5.5" fill="#ff7b72" rx="1"/>
<rect x="150" y="110" width="5.5" height="5.5" fill="#ff7b72" rx="1"/>
<rect x="155" y="110" width="5.5" height="5.5" fill="#ff7b72" rx="1"/>
<rect x="195" y="110" width="5.5" height="5.5" fill="#ff7b72" rx="1"/>
<rect x="200" y="110" width="5.5" height="5.5" fill="#ff7b72" rx="1"/>
<rect x="255" y="110" width="5.5" height="5.5" fill="#00a8ff" rx="1"/>
<rect x="260" y="110" width="5.5" height="5.5" fill="#00a8ff" rx="1"/>
<rect x="70" y="115" width="5.5" height="5.5" fill="#00a8ff" rx="1"/>
<rect x="75" y="115" width="5.5" height="5.5" fill="#00a8ff" rx="1"/>
<rect x="105" y="115" width="5.5" height="5.5" fill="#ff7b72" rx="1"/>
<rect x="110" y="115" width="5.5" height="5.5" fill="#ff7b72" rx="1"/>
<rect x="115" y="115" width="5.5" height="5.5" fill="#ff7b72" rx="1"/>
<rect x="120" y="115" width="5.5" height="5.5" fill="#ff7b72" rx="1"/>
<rect x="125" y="115" width="5.5" height="5.5" fill="#ff7b72" rx="1"/>
<rect x="150" y="115" width="5.5" height="5.5" fill="#ff7b72" rx="1"/>
<rect x="155" y="115" width="5.5" height="5.5" fill="#ff7b72" rx="1"/>
<rect x="160" y="115" width="5.5" height="5.5" fill="#ff7b72" rx="1"/>
<rect x="165" y="115" width="5.5" height="5.5" fill="#ff7b72" rx="1"/>
<rect x="170" y="115" width="5.5" height="5.5" fill="#ff7b72" rx="1"/>
<rect x="195" y="115" width="5.5" height="5.5" fill="#ff7b72" rx="1"/>
<rect x="200" y="115" width="5.5" height="5.5" fill="#ff7b72" rx="1"/>
<rect x="205" y="115" width="5.5" height="5.5" fill="#ff7b72" rx="1"/>
<rect x="210" y="115" width="5.5" height="5.5" fill="#ff7b72" rx="1"/>
<rect x="215" y="115" width="5.5" height="5.5" fill="#ff7b72" rx="1"/>
<rect x="255" y="115" width="5.5" height="5.5" fill="#00a8ff" rx="1"/>
<rect x="260" y="115" width="5.5" height="5.5" fill="#00a8ff" rx="1"/>
<rect x="70" y="120" width="5.5" height="5.5" fill="#00a8ff" rx="1"/>
<rect x="75" y="120" width="5.5" height="5.5" fill="#00a8ff" rx="1"/>
<rect x="105" y="120" width="5.5" height="5.5" fill="#ff7b72" rx="1"/>
<rect x="110" y="120" width="5.5" height="5.5" fill="#ff7b72" rx="1"/>
<rect x="125" y="120" width="5.5" height="5.5" fill="#ff7b72" rx="1"/>
<rect x="130" y="120" width="5.5" height="5.5" fill="#ff7b72" rx="1"/>
<rect x="150" y="120" width="5.5" height="5.5" fill="#ff7b72" rx="1"/>
<rect x="155" y="120" width="5.5" height="5.5" fill="#ff7b72" rx="1"/>
<rect x="170" y="120" width="5.5" height="5.5" fill="#ff7b72" rx="1"/>
<rect x="175" y="120" width="5.5" height="5.5" fill="#ff7b72" rx="1"/>
<rect x="195" y="120" width="5.5" height="5.5" fill="#ff7b72" rx="1"/>
<rect x="200" y="120" width="5.5" height="5.5" fill="#ff7b72" rx="1"/>
<rect x="215" y="120" width="5.5" height="5.5" fill="#ff7b72" rx="1"/>
<rect x="220" y="120" width="5.5" height="5.5" fill="#ff7b72" rx="1"/>
<rect x="255" y="120" width="5.5" height="5.5" fill="#00a8ff" rx="1"/>
<rect x="260" y="120" width="5.5" height="5.5" fill="#00a8ff" rx="1"/>
<rect x="70" y="125" width="5.5" height="5.5" fill="#00a8ff" rx="1"/>
<rect x="75" y="125" width="5.5" height="5.5" fill="#00a8ff" rx="1"/>
<rect x="105" y="125" width="5.5" height="5.5" fill="#ff7b72" rx="1"/>
<rect x="110" y="125" width="5.5" height="5.5" fill="#ff7b72" rx="1"/>
<rect x="125" y="125" width="5.5" height="5.5" fill="#ff7b72" rx="1"/>
<rect x="130" y="125" width="5.5" height="5.5" fill="#ff7b72" rx="1"/>
<rect x="150" y="125" width="5.5" height="5.5" fill="#ff7b72" rx="1"/>
<rect x="155" y="125" width="5.5" height="5.5" fill="#ff7b72" rx="1"/>
<rect x="170" y="125" width="5.5" height="5.5" fill="#ff7b72" rx="1"/>
<rect x="175" y="125" width="5.5" height="5.5" fill="#ff7b72" rx="1"/>
<rect x="195" y="125" width="5.5" height="5.5" fill="#ff7b72" rx="1"/>
<rect x="200" y="125" width="5.5" height="5.5" fill="#ff7b72" rx="1"/>
<rect x="215" y="125" width="5.5" height="5.5" fill="#ff7b72" rx="1"/>
<rect x="220" y="125" width="5.5" height="5.5" fill="#ff7b72" rx="1"/>
<rect x="255" y="125" width="5.5" height="5.5" fill="#00a8ff" rx="1"/>
<rect x="260" y="125" width="5.5" height="5.5" fill="#00a8ff" rx="1"/>
<rect x="70" y="130" width="5.5" height="5.5" fill="#00a8ff" rx="1"/>
<rect x="75" y="130" width="5.5" height="5.5" fill="#00a8ff" rx="1"/>
<rect x="110" y="130" width="5.5" height="5.5" fill="#ff7b72" rx="1"/>
<rect x="115" y="130" width="5.5" height="5.5" fill="#ff7b72" rx="1"/>
<rect x="120" y="130" width="5.5" height="5.5" fill="#ff7b72" rx="1"/>
<rect x="125" y="130" width="5.5" height="5.5" fill="#ff7b72" rx="1"/>
<rect x="130" y="130" width="5.5" height="5.5" fill="#ff7b72" rx="1"/>
<rect x="155" y="130" width="5.5" height="5.5" fill="#ff7b72" rx="1"/>
<rect x="160" y="130" width="5.5" height="5.5" fill="#ff7b72" rx="1"/>
<rect x="165" y="130" width="5.5" height="5.5" fill="#ff7b72" rx="1"/>
<rect x="170" y="130" width="5.5" height="5.5" fill="#ff7b72" rx="1"/>
<rect x="175" y="130" width="5.5" height="5.5" fill="#ff7b72" rx="1"/>
<rect x="200" y="130" width="5.5" height="5.5" fill="#ff7b72" rx="1"/>
<rect x="205" y="130" width="5.5" height="5.5" fill="#ff7b72" rx="1"/>
<rect x="210" y="130" width="5.5" height="5.5" fill="#ff7b72" rx="1"/>
<rect x="215" y="130" width="5.5" height="5.5" fill="#ff7b72" rx="1"/>
<rect x="220" y="130" width="5.5" height="5.5" fill="#ff7b72" rx="1"/>
<rect x="255" y="130" width="5.5" height="5.5" fill="#00a8ff" rx="1"/>
<rect x="260" y="130" width="5.5" height="5.5" fill="#00a8ff" rx="1"/>
<rect x="70" y="135" width="5.5" height="5.5" fill="#00a8ff" rx="1"/>
<rect x="75" y="135" width="5.5" height="5.5" fill="#00a8ff" rx="1"/>
<rect x="255" y="135" width="5.5" height="5.5" fill="#00a8ff" rx="1"/>
<rect x="260" y="135" width="5.5" height="5.5" fill="#00a8ff" rx="1"/>
<rect x="75" y="140" width="5.5" height="5.5" fill="#00a8ff" rx="1"/>
<rect x="80" y="140" width="5.5" height="5.5" fill="#00a8ff" rx="1"/>
<rect x="250" y="140" width="5.5" height="5.5" fill="#00a8ff" rx="1"/>
<rect x="255" y="140" width="5.5" height="5.5" fill="#00a8ff" rx="1"/>
<rect x="80" y="145" width="5.5" height="5.5" fill="#00a8ff" rx="1"/>
<rect x="85" y="145" width="5.5" height="5.5" fill="#00a8ff" rx="1"/>
<rect x="245" y="145" width="5.5" height="5.5" fill="#00a8ff" rx="1"/>
<rect x="250" y="145" width="5.5" height="5.5" fill="#00a8ff" rx="1"/>

    </g>

    <!-- Consola centrada en desarrollo web -->
    <g class="text" transform="translate(295, 75)">
        <foreignObject x="0" y="0" width="450" height="25">
            <div xmlns="http://www.w3.org/1999/xhtml" class="text typing-container" style="color: #c9d1d9; font-size: 14px;">
                <span style="color: #3fb950; font-weight: bold;">perez66607@github</span>:<span style="color: #58a6ff; font-weight: bold;">~</span>$ <span style="color: #f0f6fc; font-weight: bold;">./web_dev.sh</span>
            </div>
        </foreignObject>
        
        <text x="0" y="45" class="fade f-1"><tspan class="key">Role</tspan>       <tspan class="val">~ Web Developer &amp; UI Designer</tspan></text>
        <text x="0" y="70" class="fade f-2"><tspan class="key">Location</tspan>   <tspan class="val">~ El Ejido, Andalusia</tspan></text>
        <text x="0" y="95" class="fade f-3"><tspan class="key">Focus</tspan>      <tspan class="val">~ Interactive Web Apps &amp; Clicker Games</tspan></text>
        <text x="0" y="120" class="fade f-4"><tspan class="key">Tools</tspan>      <tspan class="val">~ HTML, CSS, JavaScript, VS Code</tspan></text>
        
        <text x="0" y="155" class="fade f-5" fill="#58a6ff" font-weight="bold">Tech Stack &amp; Skills</text>
        
        <g class="fade f-6" transform="translate(0, 170)">
            <text x="0" y="10" font-size="12px" fill="#c9d1d9">HTML / CSS / UI</text>
            <rect x="110" y="1" width="160" height="9" class="progress-bg" />
            <rect x="110" y="1" width="145" height="9" class="progress-bar" fill="#00a8ff" />
            
            <text x="0" y="30" font-size="12px" fill="#c9d1d9">JavaScript / Web</text>
            <rect x="110" y="21" width="160" height="9" class="progress-bg" />
            <rect x="110" y="21" width="130" height="9" class="progress-bar" fill="#ffa657" />
            
            <text x="0" y="50" font-size="12px" fill="#c9d1d9">Python / Scripts</text>
            <rect x="110" y="41" width="160" height="9" class="progress-bg" />
            <rect x="110" y="41" width="115" height="9" class="progress-bar" fill="#3fb950" />
        </g>
    </g>
    </svg>